<?xml version="1.0" standalone="no"?>
<!DOCTYPE svg PUBLIC "-//W3C//DTD SVG 20010904//EN"
 "http://www.w3.org/TR/2001/REC-SVG-20010904/DTD/svg10.dtd">
<svg version="1.0" xmlns="http://www.w3.org/2000/svg"
 width="1694.000000pt" height="1664.000000pt" viewBox="0 0 1694.000000 1664.000000"
 preserveAspectRatio="xMidYMid meet">

<g transform="translate(0.000000,1664.000000) scale(0.100000,-0.100000)"
fill="#ffffff" stroke="none">
<path d="M8071 15719 c-905 -42 -1737 -388 -2405 -1002 -607 -559 -1023 -1326
-1159 -2142 -53 -314 -52 -266 -52 -2260 0 -2042 -2 -1951 60 -2291 184 -992
762 -1877 1600 -2443 579 -392 1220 -607 1930 -647 61 -3 129 -13 151 -21 37
-13 46 -13 75 0 20 9 81 18 149 22 1093 60 2092 573 2765 1420 479 603 759
1320 815 2090 8 104 10 712 7 1980 -4 1982 -1 1879 -57 2191 -111 613 -374
1190 -771 1689 -186 235 -494 527 -745 708 -587 422 -1314 677 -2009 703 -77
2 -153 6 -170 7 -16 2 -99 0 -184 -4z m67 -1132 l2 -946 -32 -5 c-18 -3 -56
-8 -85 -11 -50 -5 -51 -5 -57 22 -17 85 -316 1808 -316 1823 0 21 11 24 144
41 89 11 312 28 331 24 7 -1 11 -327 13 -948z m442 932 c1202 -110 2299 -858
2850 -1944 186 -367 292 -701 363 -1145 21 -134 21 -150 25 -2020 2 -1308 0
-1923 -8 -2010 -146 -1680 -1447 -3036 -3120 -3255 -63 -8 -172 -18 -242 -22
l-128 -6 0 126 0 125 88 7 c346 25 605 76 892 173 1062 360 1882 1248 2154
2332 73 289 99 504 99 815 1 251 -16 428 -59 645 -102 514 -320 988 -648 1409
-95 122 -332 370 -449 469 -437 371 -918 609 -1490 736 -27 6 -22 10 60 50
312 152 562 382 738 678 246 414 302 937 149 1397 -211 635 -764 1087 -1424
1164 l-105 12 -3 130 c-1 71 -1 134 2 140 4 12 73 11 256 -6z m-1115 -91 c3
-13 75 -423 160 -913 85 -489 157 -900 160 -912 4 -19 -2 -24 -51 -38 -31 -9
-58 -14 -60 -12 -5 5 -715 1729 -717 1742 -3 16 421 151 485 154 10 1 20 -8
23 -21z m-321 -1082 c196 -478 355 -869 354 -871 -2 -1 -32 -17 -68 -37 l-65
-35 -385 574 c-212 316 -392 581 -401 589 -19 17 -61 21 -97 10 -25 -8 -52
-54 -52 -89 0 -14 149 -246 389 -605 l390 -581 -52 -43 c-29 -24 -59 -49 -68
-56 -14 -10 -30 2 -111 85 -73 75 -874 910 -1167 1215 l-45 48 25 26 c88 97
394 328 594 449 138 83 387 208 395 198 4 -5 168 -399 364 -877z m1366 698
c446 -80 857 -384 1069 -795 65 -125 119 -274 148 -409 14 -67 18 -130 18
-295 0 -235 -15 -331 -80 -510 -113 -314 -340 -597 -621 -777 -181 -116 -445
-207 -649 -225 l-75 -6 0 1515 c0 833 3 1517 5 1520 8 7 82 0 185 -18z m-2628
-886 c134 -139 419 -435 632 -658 214 -223 397 -412 407 -422 11 -9 19 -19 19
-23 0 -3 -19 -30 -42 -60 -28 -34 -48 -52 -58 -49 -16 5 -1568 971 -1584 985
-11 10 33 78 143 219 91 117 218 260 231 260 4 0 118 -114 252 -252z m84 -892
l782 -487 -27 -49 c-14 -28 -30 -48 -36 -46 -288 118 -1362 526 -1383 526 -43
0 -82 -43 -82 -90 0 -21 8 -47 18 -59 11 -14 243 -109 692 -282 371 -144 678
-264 682 -268 7 -6 -33 -161 -42 -161 -14 0 -1833 390 -1837 394 -7 7 47 207
94 346 70 207 157 403 271 607 43 78 47 82 66 70 12 -8 373 -233 802 -501z
m2174 -1337 l0 -1522 -68 7 c-165 17 -365 76 -517 152 -424 214 -712 587 -817
1061 -19 83 -22 129 -22 303 0 174 3 220 21 302 90 402 316 739 646 961 104
70 255 144 376 184 103 33 282 71 348 72 l33 1 0 -1521z m-2515 431 c495 -105
903 -195 906 -198 3 -4 4 -28 1 -54 l-4 -48 -945 0 -945 0 6 98 c9 118 22 243
37 335 9 56 14 67 27 63 10 -3 422 -91 917 -196z m899 -532 c3 -24 7 -61 9
-84 l5 -41 -187 -41 c-235 -52 -1094 -241 -1264 -278 -71 -16 -141 -36 -157
-46 -57 -34 -46 -131 18 -157 26 -11 119 7 806 159 428 94 787 172 798 173 17
2 23 -10 43 -79 13 -44 25 -86 27 -93 2 -8 -360 -159 -986 -412 -544 -219
-991 -399 -993 -399 -2 0 -3 302 -3 670 l0 670 939 0 940 0 5 -42z m2178 -28
c1051 -161 1951 -844 2391 -1815 71 -157 166 -438 201 -595 87 -394 99 -812
35 -1205 -213 -1304 -1250 -2353 -2554 -2581 -120 -21 -326 -44 -398 -44 l-57
0 2 713 3 712 65 8 c306 38 559 130 792 286 496 334 776 882 755 1476 -23 634
-382 1190 -952 1473 -174 87 -361 142 -560 166 l-100 11 -3 714 -2 714 122 -6
c68 -3 185 -15 260 -27z m-1992 -647 c0 -5 22 -45 49 -90 48 -81 48 -82 25
-87 -13 -4 -54 -26 -91 -50 -38 -24 -509 -323 -1048 -666 -539 -342 -986 -627
-992 -632 -10 -8 -13 64 -13 354 l0 365 28 1 c15 0 477 183 1027 405 550 223
1003 405 1008 406 4 1 7 -2 7 -6z m276 -398 c-1 0 -274 -270 -606 -600 -1842
-1828 -1723 -1712 -1731 -1685 -4 14 -7 233 -8 488 -1 410 1 462 14 462 9 0
474 291 1033 646 1253 797 1178 748 1193 775 12 22 13 22 60 -32 26 -30 46
-54 45 -54z m182 -162 c26 -21 48 -38 50 -39 2 -1 -113 -172 -1402 -2087 -340
-505 -621 -930 -626 -946 -9 -34 10 -85 39 -100 35 -19 85 -13 111 14 12 13
152 217 311 452 158 235 430 640 604 898 174 259 437 650 586 870 148 220 328
489 401 597 l131 197 68 -35 68 -34 -40 -97 c-41 -98 -222 -529 -896 -2138
-200 -478 -471 -1124 -600 -1435 -130 -311 -238 -567 -240 -569 -7 -9 -144
133 -242 249 -366 436 -619 930 -750 1469 -29 118 -76 371 -69 375 2 1 15 6
30 11 24 9 1552 1514 2193 2160 121 122 221 223 223 224 2 0 25 -16 50 -36z
m597 -309 c30 -8 55 -18 55 -22 0 -4 -63 -313 -140 -687 -184 -889 -349 -1691
-628 -3047 -126 -610 -232 -1111 -235 -1115 -9 -8 -267 119 -397 194 -180 106
-540 367 -540 393 0 5 176 429 391 942 1185 2830 1373 3277 1391 3321 14 32
25 46 35 43 7 -3 38 -13 68 -22z m344 -60 l31 -6 0 -2549 0 -2549 -65 0 c-97
0 -338 27 -493 56 -230 42 -582 143 -582 167 0 10 225 1107 888 4320 l117 567
36 0 c20 0 51 -3 68 -6z m460 -43 c506 -111 940 -504 1106 -1005 60 -181 70
-247 70 -481 0 -234 -10 -298 -72 -484 -124 -373 -407 -697 -763 -876 -157
-79 -360 -139 -512 -151 l-78 -7 0 1515 c0 833 2 1517 5 1519 8 8 149 -9 244
-30z"/>
<path d="M2579 3897 c-99 -42 -166 -103 -216 -199 -26 -49 -28 -62 -28 -163 0
-105 2 -114 33 -177 57 -116 174 -203 387 -288 169 -67 319 -194 379 -320 29
-61 31 -72 31 -185 0 -116 -1 -122 -34 -190 -88 -181 -288 -288 -477 -257
-178 29 -338 174 -375 337 l-12 53 -44 -15 -45 -16 6 -41 c11 -75 73 -184 146
-256 219 -219 561 -220 779 -1 136 136 191 329 146 519 -47 198 -209 357 -477
466 -180 73 -300 168 -332 262 -104 306 269 538 489 303 25 -26 45 -52 45 -56
0 -4 4 -14 9 -21 6 -11 16 -10 49 4 23 9 42 22 42 28 0 22 -56 100 -100 140
-71 64 -140 90 -250 93 -82 3 -103 0 -151 -20z"/>
<path d="M10968 3910 c-179 -31 -335 -110 -477 -245 -135 -129 -218 -258 -267
-420 -26 -84 -28 -102 -28 -275 0 -174 1 -190 27 -275 79 -255 262 -468 502
-585 118 -58 192 -78 323 -89 265 -23 518 53 697 211 l34 29 -37 33 -36 34
-51 -38 c-180 -135 -381 -191 -603 -169 -198 20 -353 93 -501 233 -164 157
-247 339 -258 566 -11 237 48 419 191 592 154 186 366 293 603 305 222 11 415
-48 577 -176 l38 -30 39 31 c38 30 38 32 22 51 -32 35 -178 126 -253 158 -111
47 -233 69 -375 68 -66 -1 -141 -5 -167 -9z"/>
<path d="M13863 3906 c-104 -34 -193 -114 -242 -216 -23 -49 -26 -67 -26 -160
1 -95 3 -111 30 -165 33 -70 116 -155 197 -203 31 -18 107 -55 171 -81 141
-59 236 -121 315 -205 72 -77 108 -150 122 -244 42 -299 -222 -563 -515 -514
-175 29 -319 153 -367 318 l-21 72 -44 -16 c-25 -10 -43 -23 -43 -32 0 -8 11
-45 24 -81 57 -163 200 -295 371 -345 92 -26 232 -23 321 8 320 112 465 467
317 776 -34 69 -173 212 -255 260 -31 19 -94 49 -140 68 -177 74 -287 147
-338 223 -101 150 -46 348 118 428 46 23 69 27 127 26 105 -1 178 -41 242
-130 19 -26 37 -48 41 -48 4 0 24 6 44 13 35 13 36 14 26 43 -17 50 -115 147
-182 182 -54 27 -73 31 -156 34 -61 2 -110 -2 -137 -11z"/>
<path d="M3610 3217 c0 -660 1 -685 21 -757 28 -104 70 -172 158 -261 187
-187 459 -231 700 -113 99 49 213 161 263 259 71 137 68 103 68 867 l0 688
-50 0 -50 0 0 -673 c0 -621 -1 -677 -18 -738 -43 -156 -164 -284 -320 -341
-81 -30 -253 -30 -334 0 -116 42 -224 135 -282 242 -56 102 -56 106 -56 837
l0 673 -50 0 -50 0 0 -683z"/>
<path d="M5280 3898 c0 -2 -1 -420 -3 -931 l-2 -927 48 0 47 0 0 835 c0 459 3
835 8 835 4 -1 223 -375 487 -833 l481 -832 52 -3 52 -3 0 930 0 931 -50 0
-50 0 -2 -829 -3 -829 -479 829 -478 829 -54 0 c-30 0 -54 -1 -54 -2z"/>
<path d="M6900 2971 l0 -931 215 0 c117 0 238 5 267 11 101 21 194 74 283 163
138 137 195 273 195 465 0 180 -53 310 -181 446 -81 85 -159 140 -218 151
l-31 6 49 54 c74 81 96 133 96 229 0 100 -31 170 -105 239 -90 84 -113 91
-357 94 l-213 3 0 -930z m466 794 c74 -47 108 -101 112 -185 2 -38 -1 -84 -8
-105 -17 -52 -67 -104 -125 -131 -45 -22 -64 -24 -197 -24 l-148 0 0 241 0
240 158 -3 c157 -3 159 -3 208 -33z m-12 -570 c97 -25 166 -65 243 -141 269
-263 189 -708 -157 -873 l-75 -36 -182 -3 -183 -4 0 536 0 536 148 0 c99 0
167 -5 206 -15z"/>
<path d="M8250 2971 l0 -931 50 0 50 0 0 325 0 325 174 0 173 0 209 -325 208
-325 58 0 c32 0 58 3 58 8 0 4 -94 151 -209 327 -195 299 -207 321 -187 329
11 4 58 26 104 48 151 72 274 222 317 388 24 90 16 270 -14 356 -58 164 -197
303 -369 372 -66 26 -71 27 -344 30 l-278 3 0 -930z m521 819 c128 -24 283
-140 341 -255 55 -108 74 -250 47 -364 -25 -111 -122 -243 -227 -309 -97 -62
-149 -72 -377 -72 l-205 0 0 505 0 505 184 0 c101 0 208 -5 237 -10z"/>
<path d="M9640 2970 l0 -930 50 0 50 0 0 930 0 930 -50 0 -50 0 0 -930z"/>
<path d="M12180 2971 l0 -931 45 0 45 0 1 438 c1 240 1 441 0 445 -2 11 98
137 109 137 5 0 156 -229 336 -510 l327 -510 59 0 c32 0 58 2 58 5 0 3 -158
250 -352 548 -193 298 -352 549 -352 557 0 8 119 175 265 370 146 195 268 361
273 368 5 9 -8 12 -56 12 l-63 0 -295 -395 c-162 -217 -298 -394 -302 -395 -4
0 -7 177 -7 393 l0 392 -46 3 -45 3 0 -930z"/>
</g>
</svg>
