<?xml version="1.0" standalone="no"?>
<!DOCTYPE svg PUBLIC "-//W3C//DTD SVG 20010904//EN"
 "http://www.w3.org/TR/2001/REC-SVG-20010904/DTD/svg10.dtd">
<svg version="1.0" xmlns="http://www.w3.org/2000/svg"
 width="853.000000pt" height="292.000000pt" viewBox="0 0 853.000000 292.000000"
 preserveAspectRatio="xMidYMid meet">

<g transform="translate(0.000000,292.000000) scale(0.100000,-0.100000)"
fill="#ffffff" stroke="none">
<path d="M1105 2300 c-171 -34 -336 -151 -427 -302 -82 -134 -103 -237 -96
-473 4 -140 8 -170 32 -240 69 -202 224 -355 421 -418 l70 -22 3185 0 3185 0
70 22 c198 63 352 215 421 418 24 71 28 99 32 245 5 205 -10 299 -67 415 -90
180 -233 296 -428 346 -75 19 -136 19 -3217 18 -1728 -1 -3159 -5 -3181 -9z
m318 -284 c31 -13 87 -68 87 -86 0 -5 -8 -11 -19 -15 -13 -4 -29 5 -54 30 -27
27 -43 35 -71 35 -120 0 -164 -135 -70 -209 16 -12 60 -37 99 -55 132 -61 188
-133 189 -243 0 -51 -5 -70 -30 -109 -43 -70 -100 -107 -173 -112 -32 -2 -75
1 -96 8 -93 31 -186 169 -129 190 19 7 23 3 33 -30 13 -42 76 -106 116 -116
43 -11 125 2 153 23 64 47 93 126 73 195 -19 64 -73 113 -175 162 -100 47
-139 84 -155 144 -34 126 100 240 222 188z m3462 -15 c27 -12 64 -33 83 -48
31 -23 33 -27 18 -41 -15 -15 -18 -15 -44 1 -76 50 -115 62 -207 62 -78 0 -97
-4 -146 -28 -69 -33 -132 -100 -166 -174 -32 -69 -35 -172 -8 -253 26 -77 118
-169 200 -200 106 -39 241 -18 337 52 15 10 20 10 34 -3 15 -15 13 -19 -18
-42 -73 -56 -125 -72 -233 -72 -93 0 -105 2 -167 33 -158 78 -250 250 -219
415 27 147 140 274 280 314 66 19 196 11 256 -16z m988 15 c43 -18 91 -71 84
-90 -9 -23 -34 -19 -52 7 -19 30 -56 47 -101 47 -28 0 -44 -8 -70 -34 -29 -29
-34 -41 -34 -79 0 -63 26 -90 137 -145 139 -68 203 -145 203 -246 0 -80 -60
-173 -134 -207 -48 -22 -133 -25 -179 -6 -47 20 -95 64 -117 108 -25 49 -25
75 0 82 15 4 22 -2 30 -29 26 -78 91 -124 175 -124 132 0 213 135 154 256 -25
53 -60 80 -171 133 -101 48 -138 87 -145 155 -7 58 1 87 34 127 47 56 120 73
186 45z m-4111 -283 c3 -314 4 -317 65 -375 79 -76 197 -76 276 0 61 58 62 61
65 375 l3 287 25 0 25 0 -3 -292 c-3 -278 -4 -295 -25 -333 -102 -190 -354
-190 -456 0 -21 38 -22 55 -25 333 l-4 292 26 0 25 0 3 -287z m873 -43 l190
-329 3 329 2 330 25 0 25 0 0 -380 0 -380 -27 0 c-26 1 -42 25 -218 331 l-190
330 -3 -331 -2 -330 -25 0 -25 0 0 380 0 380 28 0 c25 0 41 -24 217 -330z
m637 305 c63 -48 79 -139 33 -194 l-26 -30 29 -15 c39 -20 90 -73 115 -121 17
-31 22 -58 22 -115 0 -87 -20 -132 -82 -192 -57 -55 -97 -68 -213 -68 l-100 0
0 381 0 381 98 -4 c78 -2 102 -7 124 -23z m603 1 c177 -82 195 -323 32 -433
-25 -17 -52 -33 -58 -35 -6 -2 26 -61 75 -137 l86 -132 -32 3 c-29 3 -39 14
-113 130 l-80 127 -67 1 -67 0 -3 -127 c-3 -124 -4 -128 -25 -131 l-23 -3 0
380 0 381 113 0 c96 0 119 -3 162 -24z m335 -356 l0 -380 -25 0 -25 0 0 380 0
380 25 0 25 0 0 -380z m952 225 l3 -156 115 155 c107 145 117 155 148 156 l33
0 -43 -57 c-23 -32 -74 -101 -114 -154 l-72 -96 144 -222 c79 -122 144 -224
144 -226 0 -3 -12 -5 -27 -5 -25 0 -41 20 -157 203 -71 111 -131 204 -133 207
-3 3 -13 -6 -23 -20 -18 -22 -20 -43 -20 -207 l0 -183 -25 0 -25 0 0 380 0
380 25 0 24 0 3 -155z m2230 123 c116 -54 197 -160 219 -284 28 -158 -59 -323
-209 -396 l-67 -33 -255 0 -255 0 -67 33 c-136 67 -211 187 -211 337 0 169 93
297 262 361 27 10 97 13 281 11 243 -2 246 -2 302 -29z"/>
<path d="M3100 1876 l0 -94 65 2 c52 2 70 7 89 25 33 31 41 72 22 110 -22 41
-44 51 -115 51 l-61 0 0 -94z"/>
<path d="M3100 1520 l0 -210 71 0 c85 0 126 17 174 72 65 76 70 184 11 261
-49 64 -97 87 -183 87 l-73 0 0 -210z"/>
<path d="M3645 1770 l0 -200 83 0 c123 0 185 32 223 115 24 51 24 119 0 170
-38 83 -100 115 -223 115 l-83 0 0 -200z"/>
<path d="M7010 1885 c63 -63 116 -115 118 -115 4 0 0 7 -78 128 l-65 102 -45
0 -45 0 115 -115z"/>
<path d="M7022 1991 c10 -27 124 -199 129 -195 4 2 -12 49 -34 104 -39 94 -43
100 -70 100 -16 0 -27 -4 -25 -9z"/>
<path d="M7110 1992 c0 -5 12 -37 26 -73 15 -35 30 -75 35 -88 19 -48 21 -10
4 64 -9 42 -14 79 -12 82 13 13 25 -11 37 -77 7 -39 17 -73 22 -76 4 -3 8 36
8 85 l0 91 -60 0 c-33 0 -60 -4 -60 -8z"/>
<path d="M7250 1908 c0 -50 3 -89 6 -85 3 3 14 42 23 86 15 68 15 81 3 86 -29
11 -32 3 -32 -87z"/>
<path d="M6785 1969 c-27 -10 -65 -32 -83 -47 l-33 -28 207 -87 c114 -47 210
-85 212 -83 2 3 -64 50 -147 105 -129 86 -170 121 -146 121 3 0 73 -45 155
-100 83 -55 150 -97 150 -92 0 18 -226 232 -245 231 -11 0 -42 -9 -70 -20z"/>
<path d="M7305 1912 c-9 -42 -18 -83 -20 -89 -3 -7 -1 -13 3 -13 5 0 19 29 31
65 13 36 27 67 31 70 20 12 18 -17 -6 -75 -14 -34 -24 -64 -22 -66 5 -4 88
134 88 146 0 4 -20 15 -44 23 l-45 15 -16 -76z"/>
<path d="M7387 1858 c-25 -40 -43 -75 -41 -77 3 -3 34 24 70 60 58 57 63 65
47 76 -9 7 -20 13 -24 13 -4 0 -27 -33 -52 -72z"/>
<path d="M7428 1821 c-35 -33 -60 -62 -57 -65 3 -3 31 12 63 34 63 44 66 46
66 28 0 -7 -25 -29 -55 -48 -30 -19 -55 -38 -55 -42 0 -3 37 9 83 27 51 21 81
39 79 47 -5 19 -46 78 -54 78 -4 0 -36 -27 -70 -59z"/>
<path d="M6622 1834 c-13 -20 -20 -40 -15 -44 4 -4 103 -26 218 -49 116 -23
219 -45 230 -48 13 -3 17 -2 10 5 -11 11 -395 172 -410 172 -6 0 -21 -16 -33
-36z"/>
<path d="M7163 1770 c-33 -20 -56 -50 -68 -87 l-6 -23 145 0 c160 0 162 1 131
60 -34 65 -136 91 -202 50z"/>
<path d="M7488 1736 c-42 -18 -80 -35 -85 -40 -4 -5 -1 -7 8 -4 8 3 50 12 92
18 43 7 77 18 77 24 -1 31 -17 32 -92 2z"/>
<path d="M6576 1730 c-15 -76 -35 -70 247 -69 l252 1 -205 43 c-113 24 -223
47 -246 50 -40 7 -41 6 -48 -25z"/>
<path d="M7491 1684 c-40 -7 -76 -16 -79 -19 -3 -3 36 -5 86 -5 85 0 92 1 92
20 0 23 1 23 -99 4z"/>
<path d="M6570 1605 c0 -41 39 -133 79 -183 47 -60 134 -107 221 -121 83 -14
336 -14 419 -1 118 20 216 90 265 193 27 55 45 137 30 137 -5 0 -20 -24 -34
-52 -28 -59 -59 -85 -116 -98 -55 -13 -111 5 -155 49 l-37 37 -22 -53 c-55
-134 -216 -220 -359 -193 -71 13 -145 55 -192 108 -39 45 -79 134 -79 177 0
14 -4 25 -10 25 -5 0 -10 -11 -10 -25z"/>
<path d="M6616 1593 c34 -187 232 -299 409 -232 104 39 195 154 195 246 0 22
-4 23 -62 23 l-63 0 -25 -52 c-14 -29 -37 -61 -51 -71 -38 -27 -97 -38 -144
-26 -48 13 -113 76 -121 118 l-6 31 -70 0 -69 0 7 -37z"/>
<path d="M6776 1608 c27 -88 126 -133 203 -93 37 19 81 71 81 96 0 18 -9 19
-146 19 l-145 0 7 -22z"/>
<path d="M7256 1608 c27 -88 126 -133 203 -93 37 19 81 71 81 96 0 18 -9 19
-146 19 l-145 0 7 -22z"/>
</g>
</svg>
